<svg xmlns="http://www.w3.org/2000/svg" xmlns:xlink="http://www.w3.org/1999/xlink" version="1.1" x="0px" y="0px" viewBox="0 0 66 82.5" enable-background="new 0 0 66 66" xml:space="preserve"><g><path d="M23,36.6h7.4v1.9h5.8v-1.9h7.1c2.3,0,4.3-1.9,4.1-4.5C44.3-5.3,45.3,7.6,45.1,4.8C44.9,2.7,43.1,1,41,1H25.3   c-2.1,0-3.9,1.7-4.1,3.8c0,0.1-2.3,27.2-2.3,27.6C18.9,34.8,20.8,36.6,23,36.6z"/><path d="M54.6,29.1h-5.5c-0.5,0-1,0.4-1,1c0,0.6,0.5,1,1,1h1.7v6.1c0,0.8-0.2,1.6-0.5,2.4c-0.6,1.4-1.8,2.5-3.3,3   c-0.5-1.2-1.7-2.1-3.1-2.1H22.9c-1.6,0-2.9,1.1-3.3,2.5c-2.7-0.3-4.6-2.5-4.6-5.1v-6.6h1.8c0.5,0,1-0.4,1-1c0-0.5-0.5-1-1-1h-5.5   c-0.5,0-1,0.5-1,1c0,0.6,0.5,1,1,1H13v6.6c0,3.8,2.9,6.9,6.7,7.1c0.5,1.3,1.7,2.3,3.2,2.3h7.5v3.8c0,0.5,0.5,1,1,1h0.7v2.4l-11.1,4   c-1.7,0.1-3,1.5-3,3.2c0,1.8,1.4,3.2,3.2,3.2c1.8,0,3.2-1.5,3.2-3.2c0-0.8-0.3-1.5-0.8-2.1l8.4-3.1v2.1c-1.3,0.4-2.2,1.6-2.2,3.1   c0,1.8,1.4,3.2,3.2,3.2c1.8,0,3.2-1.5,3.2-3.2c0-1.4-1-2.7-2.3-3.1v-2.1l8.5,3.1c-0.5,0.6-0.7,1.3-0.7,2c0,1.8,1.5,3.2,3.2,3.2   c1.8,0,3.2-1.5,3.2-3.2c0-1.8-1.4-3.2-3.2-3.2l-11.1-4v-2.4h1.1c0.5,0,1-0.5,1-1v-3.8H44c1.7,0,3-1.2,3.3-2.7   c3.3-0.9,5.6-4,5.6-7.4v-6.1h1.7c0.5,0,1-0.4,1-1C55.6,29.5,55.2,29.1,54.6,29.1z"/></g><text x="0" y="81" fill="#000000" font-size="5px" font-weight="bold" font-family="'Helvetica Neue', Helvetica, Arial-Unicode, Arial, Sans-serif">Created by ProSymbols</text><text x="0" y="86" fill="#000000" font-size="5px" font-weight="bold" font-family="'Helvetica Neue', Helvetica, Arial-Unicode, Arial, Sans-serif">from the Noun Project</text></svg>